<?xml version='1.0' encoding='utf-8'?>
<svg xmlns="http://www.w3.org/2000/svg" width="91.44mm" height="91.44mm" version="1.1" style="shape-rendering:geometricPrecision; text-rendering:geometricPrecision; image-rendering:optimizeQuality; fill-rule:evenodd; clip-rule:evenodd" viewBox="0 0 9144 9144"> <defs> <style type="text/css">  .fil0 {fill:#F0F0F0} .fil1 {fill:#011627;fill-rule:nonzero}  </style> </defs> <g id="Layer_x0020_1"> <metadata id="CorelCorpID_0Corel-Layer"/> <g id="_2744712251296"> <polygon class="fil0" points="0,0 9144,0 9144,9144 0,9144 "/> <path class="fil1" d="M4484 2676c0,-49 39,-88 88,-88 49,0 88,39 88,88l0 2674c0,49 -39,88 -88,88 -25,0 -47,-10 -63,-26l-827 -828c-35,-34 -35,-90 0,-124 34,-35 90,-35 124,0l678 677 0 -2461z"/> <path class="fil1" d="M4484 2676c0,-49 39,-88 88,-88 49,0 88,39 88,88l0 2461 678 -677c34,-35 90,-35 124,0 35,34 35,90 0,124l-827 828c-16,16 -38,26 -63,26 -49,0 -88,-39 -88,-88l0 -2674zm2117 2262c0,-49 39,-88 88,-88 49,0 88,39 88,88l0 1530c0,49 -39,88 -88,88l-4234 0c-49,0 -88,-39 -88,-88l0 -1530c0,-49 39,-88 88,-88 49,0 88,39 88,88l0 1442 4058 0 0 -1442z"/> </g> </g> </svg>